<?xml version="1.0" encoding="UTF-8"?>
<svg version="1.1" viewBox="0 0 2048 627" width="777" height="238" xmlns="http://www.w3.org/2000/svg">
<path transform="translate(0)" d="m0 0h2048v627h-2048z" fill="#FEFEFE"/>
<path transform="translate(251,314)" d="m0 0h11l11 4 19 10 23 13 24 13 23 13 25 14 6 7 2 4v13l-4 8-7 6-6 3h-13l-10-4-25-14-14-8-4 1-2 5 6 2 23 13 21 11 11 2 12-2 10-6 6-9 3-9v-14l19-6 50-14 11-3h12l8 4 5 5 5 10 1 11-5 12-8 7-12 5-152 43-9 2h-15l-13-4-28-17-48-30-25 7-52 15h-3l-7-23-13-47-4-13v-3l88-25 39-11z" fill="#0182C8"/>
<path transform="translate(357,182)" d="m0 0h93l7 4 6 10 12 28 4 1 13-1 3 4 1 9-4 5-7 3 1 5 3 9 1 12-4 13-7 11-6 5-2 1v10l-3 5-6 3-11-1-4-4-1-2-1-9-84-1v12l-5 4-9 1-7-2-3-4-1-12-6-4v-2h-2l-6-9-3-8-1-11 2-11 3-8v-3l-8-3-3-4v-9l2-4 6-1 12 2 3-9 12-27 8-7z" fill="#0182C8"/>
<path transform="translate(1392,263)" d="m0 0h18l12 3 15 8 9 8 9 14 5 15 1 6v18l-3 12-4 10-8 11-8 8-16 8-10 3-14 1-17-4-12-5-3-2v70h-24l-1-25v-156l1-1h24l1 2-1 7 10-6 11-4z" fill="#4A4973"/>
<path transform="translate(1025,263)" d="m0 0h20l12 3 15 8 11 10 7 11 5 11 3 17-1 14-4 13-5 10-8 10-12 9-12 5-9 3-15 1-13-2-14-5-10-7-6-5-9-13-5-12-2-8v-22l4-13 5-10 8-10 8-7 15-8z" fill="#4A4973"/>
<path transform="translate(1179,263)" d="m0 0h17l11 3 9 5 9 10 3 5 9-12 9-6 11-4 5-1h17l11 3 8 4 7 6 6 10 4 15 1 10v73l-1 1h-24l-1-74-2-12-4-8-5-4-5-2-6-1h-8l-9 2-8 5-4 5-4 8-2 16-1 65h-24l-1-53-1-27-3-10-4-6-8-4-6-1h-10l-8 2-9 6-6 10-2 7-1 75-1 1h-24v-120h25l1 16 7-8 9-6z" fill="#4A4973"/>
<path transform="translate(1530,263)" d="m0 0h19l12 3 12 6 8 8 5 10 2 9v81l-1 5h-24l-1-11-11 8-13 5h-19l-13-4-10-6-7-7-5-11-1-5v-9l3-12 5-9 8-7 13-6 18-2h33l-2-15-3-5-9-4-6-1h-9l-11 4-9 7-3 3-4-2-13-12 2-4 10-8 13-6z" fill="#4A4974"/>
<path transform="translate(870,201)" d="m0 0h21l17 3 15 6 14 8 11 10-6 7-10 10h-3l-4-5-10-7-10-5-11-3-15-1-14 2-11 4-12 7-10 10-9 14-5 13-2 9v20l4 17 8 16 7 9 8 8 12 7 13 4 7 1h11l16-3 12-5 11-8 5-6 7 6 11 11-5 6-14 10-13 6-15 4-15 2h-11l-19-3-14-5-14-8-10-8-9-9-9-13-7-15-4-15-1-7v-22l3-15 5-14 8-14 11-13 10-9 16-9 13-5z" fill="#4A4973"/>
<path transform="translate(606,203)" d="m0 0h33l18 27 10 16 26 39v2h3l2-6 29-43 10-16 10-15 3-4h33l-7 11-52 76-11 16-4 6-1 72-1 1h-26l-1-72-10-16-8-11-16-24-14-20-15-22-11-16z" fill="#4A4973"/>
<path transform="translate(1751,265)" d="m0 0h24l3 5 19 45 10 23 1 4h2l3-10 18-42 10-24 1-1h24l-3 10-19 45-15 35-17 41-10 21-10 16-11 11-9 5-4 1h-8l-11-3-8-5 3-11 4-10 10 4h7l8-6 7-11 9-19 5-13v-7l-11-25-19-45-13-31z" fill="#4A4973"/>
<path transform="translate(1674,263)" d="m0 0h17l12 3 10 6 8 9 4 8 3 11 1 10v75h-25l-1-75-2-11-6-10-8-4-7-1h-10l-10 3-8 6-6 10-2 8-1 73-1 1h-24v-119l1-1h23l1 1 1 15 7-8 10-6z" fill="#4A4973"/>
<path transform="translate(1391,284)" d="m0 0h14l11 4 8 6 6 8 4 9 2 10v9l-3 13-6 11-8 7-8 4-7 2h-12l-12-4-9-7-6-10-3-9-1-6v-12l3-12 4-8 7-8 9-5z" fill="#FEFEFE"/>
<path transform="translate(1029,284)" d="m0 0h13l11 4 9 7 6 9 4 12v19l-4 12-6 8-8 7-9 4-4 1h-12l-11-4-8-6-6-7-5-12-1-4v-18l4-12 7-9 7-6 9-4z" fill="#FEFEFE"/>
<path transform="translate(360,194)" d="m0 0h88l6 12 8 19v4h-118l1-5 11-25z" fill="#FEFEFE"/>
<path transform="translate(1527,330)" d="m0 0h36v19l-2 7-7 6-11 4-6 1h-11l-10-3-6-7-2-6v-7l3-6 6-5 4-2z" fill="#FEFEFE"/>
<path transform="translate(452,250)" d="m0 0 6 1 4 2 3 6-1 6-6 6h-8l-5-5-1-8 3-5z" fill="#FEFEFE"/>
<path transform="translate(350,250)" d="m0 0 9 3 3 6-1 6-6 6h-7l-6-5-1-8 4-6z" fill="#FEFEFE"/>
</svg>
